# xmcd
#
# Track frame offsets:
#  150
#  12167
#  22647
#  35272
#  54012
#  69135
#  81622
#  96445
#  111175
#  124477
#  138395
#  148270
#
# Disc length: 2155 seconds
#
# Revision: 2
# Processed by: cddbd v1.5.1PL2 Copyright (c) Steve Scherf et al.
# Submitted via: Collectorz.com Music Collector 6.9
#
DISCID=9d08690c
DTITLE=Wendy-Lee Case - Anyway
DYEAR=1900
DGENRE=Country
TTITLE0=Sea Of Heartbreak
TTITLE1=When Will I Be Loved
TTITLE2=Anyway
TTITLE3=Feels Like Home
TTITLE4=Good Hearted Women
TTITLE5=Don't Be Cruel
TTITLE6=Love Is All Around
TTITLE7=Rodeo
TTITLE8=Daddy's Hands
TTITLE9=The Voyage
TTITLE10=Oh Lonesome Me
TTITLE11=Times Have Changed You
EXTD=
EXTT0=
EXTT1=
EXTT2=
EXTT3=
EXTT4=
EXTT5=
EXTT6=
EXTT7=
EXTT8=
EXTT9=
EXTT10=
EXTT11=
PLAYORDER=
